<svg width="193" height="92" viewBox="0 0 193 92" fill="none" xmlns="http://www.w3.org/2000/svg">
<g clip-path="url(#clip0_50_217)">
<path d="M28.9271 50.3342V68.8844L65.9537 18.6658H37.1552V0H37.0909L0 50.3342H28.9271Z" fill="#1C9CF2"/>
<path d="M28.9271 73.4497V92L65.9537 41.7814H37.1552V23.1156H37.0909L0 73.4497H28.9271Z" fill="#FF6633"/>
<path d="M48.9835 41.7814H37.1555V23.1156H37.0912L17.0352 50.3342H28.9274V68.8844L48.9835 41.7814Z" fill="white"/>
<path d="M118.73 65.4171L123.294 59.1759V26.5251H86.2031V65.4171H99.5096V34.9045H109.988V65.4171H118.73Z" fill="#FF6633"/>
<path d="M156.656 59.3492V26.5251H126.122V34.9045H143.285V41.7814H134.093V50.1608H143.285V57.0377H126.122V65.4171H152.156L156.656 59.3492Z" fill="#1C9CF2"/>
<path d="M192.975 34.9045V26.5251H164.884L160.191 32.8819V65.4171H192.975V57.0377H173.498V34.9045H192.975Z" fill="#1C9CF2"/>
<path d="M85.9453 73.6231V69.1734H90.8951V73.6231H89.3523V70.3869H87.4238V73.6231H85.9453Z" fill="white"/>
<path d="M93.1453 72.5251H95.9737V73.6231H91.6025V69.1734H95.9095V70.2714H93.1453V70.907H95.588V71.8317H93.1453V72.5251Z" fill="white"/>
<path d="M96.4873 73.6231V69.1734H100.023C100.923 69.1734 101.308 69.5201 101.308 70.3291V71.196C101.308 72.005 100.923 72.3518 100.023 72.3518H98.0301V73.6231H96.4873ZM97.9658 71.3116H99.3157C99.6371 71.3116 99.7014 71.2538 99.7014 70.9648V70.5603C99.7014 70.2714 99.6371 70.2136 99.3157 70.2136H97.9658V71.3116Z" fill="white"/>
<path d="M103.173 73.6231C102.209 73.6231 101.759 73.2186 101.759 72.3518V70.4447C101.759 69.5779 102.209 69.1734 103.173 69.1734H105.294C106.259 69.1734 106.709 69.5779 106.709 70.4447V71.0226H105.23V70.7337C105.23 70.4447 105.101 70.3291 104.78 70.3291H103.687C103.366 70.3291 103.237 70.4447 103.237 70.7337V72.0628C103.237 72.3518 103.366 72.4673 103.687 72.4673H104.78C105.101 72.4673 105.23 72.3518 105.23 72.0628V71.7161H106.709V72.3518C106.709 73.2186 106.259 73.6231 105.294 73.6231H103.173Z" fill="white"/>
<path d="M108.701 73.6231C107.737 73.6231 107.287 73.2186 107.287 72.3518V70.4447C107.287 69.5779 107.737 69.1734 108.701 69.1734H111.015C111.98 69.1734 112.43 69.5779 112.43 70.4447V72.3518C112.43 73.2186 111.98 73.6231 111.015 73.6231H108.701ZM110.501 72.4096C110.823 72.4096 110.951 72.294 110.951 72.005V70.6759C110.951 70.3869 110.823 70.2714 110.501 70.2714H109.28C108.958 70.2714 108.83 70.3869 108.83 70.6759V72.005C108.83 72.294 108.958 72.4096 109.28 72.4096H110.501Z" fill="white"/>
<path d="M116.544 69.1156H118.086V73.5653H116.544V71.8895H114.615V73.5653H113.072V69.1156H114.615V70.6759H116.544V69.1156Z" fill="white"/>
<path d="M122.651 73.6231L122.394 72.9297H120.337L120.08 73.6231H118.473L120.594 69.1734H122.33L124.387 73.6231H122.651ZM120.723 71.9472H122.008L121.365 70.3869L120.723 71.9472Z" fill="white"/>
<path d="M124.386 73.6231V72.4673H124.579C124.9 72.4673 124.964 72.4096 125.029 72.1206L125.221 69.1734H129.657V73.6231H128.114V70.3869H126.7L126.571 72.4096C126.507 73.2764 126.121 73.6809 125.157 73.6809H124.386V73.6231Z" fill="white"/>
<path d="M136.086 69.1156C137.05 69.1156 137.5 69.5201 137.5 70.3869V72.294C137.5 73.1608 137.05 73.5653 136.086 73.5653H133.836C132.872 73.5653 132.422 73.1608 132.422 72.294V71.6583H133.9V72.1206C133.9 72.4096 134.029 72.5251 134.35 72.5251H135.572C135.893 72.5251 136.022 72.4096 136.022 72.1206V71.7161H134.672V70.8493H136.022V70.5025C136.022 70.2136 135.893 70.098 135.572 70.098H134.35C134.029 70.098 133.9 70.2136 133.9 70.5025V70.907H132.422V70.3292C132.422 69.4623 132.872 69.0578 133.836 69.0578H136.086V69.1156Z" fill="white"/>
<path d="M141.614 69.1156H143.157V73.5653H141.614V71.8895H139.685V73.5653H138.143V69.1156H139.685V70.6759H141.614V69.1156Z" fill="white"/>
<path d="M145.343 72.5251H148.171V73.6231H143.8V69.1734H148.107V70.2714H145.343V70.907H147.785V71.8317H145.343V72.5251Z" fill="white"/>
<path d="M148.685 73.6231V69.1734H152.22C153.12 69.1734 153.506 69.5201 153.506 70.3291V71.196C153.506 72.005 153.12 72.3518 152.22 72.3518H150.227V73.6231H148.685ZM150.227 71.3116H151.577C151.899 71.3116 151.963 71.2538 151.963 70.9648V70.5603C151.963 70.2714 151.899 70.2136 151.577 70.2136H150.227V71.3116Z" fill="white"/>
<path d="M158.07 69.1156V70.3291H155.563V73.5653H154.021V69.1156H158.07Z" fill="white"/>
<path d="M159.806 73.6231C158.842 73.6231 158.392 73.2186 158.392 72.3518V70.4447C158.392 69.5779 158.842 69.1734 159.806 69.1734H162.12C163.084 69.1734 163.534 69.5779 163.534 70.4447V72.3518C163.534 73.2186 163.084 73.6231 162.12 73.6231H159.806ZM161.606 72.4096C161.927 72.4096 162.056 72.294 162.056 72.005V70.6759C162.056 70.3869 161.927 70.2714 161.606 70.2714H160.384C160.063 70.2714 159.934 70.3869 159.934 70.6759V72.005C159.934 72.294 160.063 72.4096 160.384 72.4096H161.606Z" fill="white"/>
<path d="M167.712 73.6231C166.748 73.6231 166.298 73.2186 166.298 72.3518V70.4447C166.298 69.5779 166.748 69.1734 167.712 69.1734H169.833C170.798 69.1734 171.248 69.5779 171.248 70.4447V71.0226H169.769V70.7337C169.769 70.4447 169.641 70.3291 169.319 70.3291H168.226C167.905 70.3291 167.776 70.4447 167.776 70.7337V72.0628C167.776 72.3518 167.905 72.4673 168.226 72.4673H169.319C169.641 72.4673 169.769 72.3518 169.769 72.0628V71.7161H171.248V72.3518C171.248 73.2186 170.798 73.6231 169.833 73.6231H167.712Z" fill="white"/>
<path d="M176.326 69.1156V70.3291H174.719V73.5653H173.176V70.3291H171.569V69.1156H176.326Z" fill="white"/>
<path d="M176.776 73.6231V69.1734H180.312C181.212 69.1734 181.598 69.5201 181.598 70.3291V71.196C181.598 72.005 181.212 72.3518 180.312 72.3518H178.319V73.6231H176.776ZM178.255 71.3116H179.605C179.926 71.3116 179.99 71.2538 179.99 70.9648V70.5603C179.99 70.2714 179.926 70.2136 179.605 70.2136H178.255V71.3116Z" fill="white"/>
<path d="M183.462 73.6231C182.498 73.6231 182.048 73.2186 182.048 72.3518V70.4447C182.048 69.5779 182.498 69.1734 183.462 69.1734H185.776C186.74 69.1734 187.19 69.5779 187.19 70.4447V72.3518C187.19 73.2186 186.74 73.6231 185.776 73.6231H183.462ZM185.262 72.4096C185.583 72.4096 185.712 72.294 185.712 72.005V70.6759C185.712 70.3869 185.583 70.2714 185.262 70.2714H184.041C183.719 70.2714 183.591 70.3869 183.591 70.6759V72.005C183.591 72.294 183.719 72.4096 184.041 72.4096H185.262Z" fill="white"/>
<path d="M191.69 69.1156H192.976V73.5653H191.497V71.0804L189.119 73.6231H187.897V69.1734H189.376V71.6005L191.69 69.1156ZM189.505 68.8844C189.119 68.8844 188.99 68.7111 188.99 68.4221V68.0754H189.955V68.2488C189.955 68.3643 190.019 68.4221 190.147 68.4221H190.79C190.919 68.4221 190.983 68.3643 190.983 68.2488V68.0754H191.947V68.4221C191.947 68.7689 191.754 68.8844 191.433 68.8844H189.505Z" fill="white"/>
</g>
<defs>
<clipPath id="clip0_50_217">
<rect width="192.976" height="92" fill="white"/>
</clipPath>
</defs>
</svg>
